<?xml version="1.0" encoding="UTF-8"?>
<svg version="1.1" xmlns="http://www.w3.org/2000/svg" width="512" height="512">
<path d="M0 0 C3.49992595 -0.31634912 5.3602079 -0.47066445 8.24609375 1.65234375 C8.96925781 2.40644531 9.69242188 3.16054687 10.4375 3.9375 C16.67165206 9.87345644 23.48000508 13.920696 31 18 C31.62116699 18.35433105 32.24233398 18.70866211 32.88232422 19.07373047 C43.18147208 24.86143604 51.85516118 25.52678354 63.54296875 25.1328125 C97.07370664 24.01649216 129.00476084 38.54389379 153.70703125 60.39453125 C173.73586677 79.41403963 183.12521572 103.08044607 187 130 C187.86882812 130.10957031 188.73765625 130.21914062 189.6328125 130.33203125 C202.91706689 132.15973068 202.91706689 132.15973068 208.18359375 137.01171875 C211.55844352 139.39424099 214.5723819 139.90214724 218.5625 140.4375 C234.61657372 143.03982244 247.48451879 150.68719126 259 162 C259.77472656 162.75023437 260.54945313 163.50046875 261.34765625 164.2734375 C274.95576479 178.325035 281.47251689 197.40330916 281.20703125 216.83203125 C280.14628681 233.06342254 271.63237981 247.93776229 260 259 C247.0685712 270.17491634 232.84009988 274.17105494 216 273 C199.34374161 269.76487767 187.61101194 259.69838705 177 247 C176.78085937 248.17175781 176.56171875 249.34351563 176.3359375 250.55078125 C172.36215511 270.63784489 172.36215511 270.63784489 165 278 C164.95935178 280.37501765 165.01649825 282.75211389 165.125 285.125 C165.26055497 291.26287068 164.95741298 296.09572134 161 301 C157.36264272 304.77351504 153.48133097 307.73389626 148.1953125 308.30078125 C142.33369531 308.32315383 138.08240056 308.25794908 133 305 C129.86650268 303.95550089 129.01031744 304.06576355 126 305 C125.896875 306.03125 125.79375 307.0625 125.6875 308.125 C125 312 125 312 123.47802734 314.51660156 C121.34271465 319.54908282 121.61728481 324.19907624 121.6640625 329.609375 C121.65154713 331.9140653 121.63850988 334.21875281 121.625 336.5234375 C121.62107738 340.13519241 121.62498648 343.74667011 121.63964844 347.35839844 C121.64826387 350.85913709 121.62645746 354.35873648 121.6015625 357.859375 C121.61490631 358.92637634 121.62825012 359.99337769 121.64199829 361.0927124 C121.55725833 369.77903004 119.19934796 376.2264101 113.5625 382.875 C106.6214315 388.63100803 100.65089993 391.37033582 91.625 390.9375 C83.4484504 389.92958738 77.24407178 386.98757142 72 380.5625 C67.13977676 374.03157502 66.72105876 367.98784491 66.875 360.125 C66.88402344 359.24585938 66.89304687 358.36671875 66.90234375 357.4609375 C66.92575423 355.3071729 66.9616199 353.15354986 67 351 C63.37 351 59.74 351 56 351 C56.03480469 351.96679688 56.06960938 352.93359375 56.10546875 353.9296875 C56.32585413 364.52917501 55.80010923 373.64058413 48.875 382.17578125 C43.10498355 387.78952642 36.7557486 390.62700011 28.8125 391.25 C19.78062657 390.657746 14.07358641 387.8254945 7.2265625 381.9375 C1.45085745 374.31762247 0.43106014 365.77711086 0.56640625 356.48046875 C0.55679931 354.30143159 0.5470286 352.12239514 0.53710938 349.94335938 C0.54567971 346.56689065 0.56247949 343.19061466 0.5847168 339.81420898 C0.82139219 322.89734467 0.82139219 322.89734467 -3.79785156 306.81176758 C-6.60364345 300.24915482 -7.11431969 293.06703515 -7 286 C-7.70511719 285.75507813 -8.41023437 285.51015625 -9.13671875 285.2578125 C-12.39763037 283.82532472 -14.96134115 282.00478131 -17.8125 279.875 C-18.78832031 279.15054687 -19.76414063 278.42609375 -20.76953125 277.6796875 C-21.50558594 277.12539063 -22.24164063 276.57109375 -23 276 C-23.01458252 276.98806641 -23.02916504 277.97613281 -23.04418945 278.99414062 C-23.10256335 282.69208313 -23.17979024 286.38944136 -23.26245117 290.08691406 C-23.29551798 291.68121798 -23.32360559 293.27563383 -23.34643555 294.87011719 C-23.38032072 297.17430927 -23.43264737 299.47749225 -23.48828125 301.78125 C-23.49467117 302.48366821 -23.5010611 303.18608643 -23.50764465 303.90979004 C-23.70851766 310.81152289 -25.6179539 317.43086342 -30.38350868 322.62819767 C-37.52518032 328.68883139 -45.05654833 329.72891485 -54.11572266 329.63110352 C-55.28451462 329.63825882 -56.45330658 329.64541412 -57.65751648 329.65278625 C-61.49343804 329.66959673 -65.32817851 329.65031583 -69.1640625 329.62890625 C-71.84347073 329.62973553 -74.52283885 329.63214236 -77.20223999 329.63621521 C-82.80553614 329.64072128 -88.40849683 329.62495637 -94.01171875 329.59692383 C-100.47281056 329.56484694 -106.93329879 329.56490442 -113.39443362 329.5821386 C-119.63514689 329.59804557 -125.87564068 329.59124553 -132.11634445 329.57420158 C-134.76125979 329.56902797 -137.4061925 329.56949157 -140.0511055 329.57574654 C-143.74880348 329.58121015 -147.44548439 329.5607854 -151.14306641 329.53344727 C-152.23003311 329.53997314 -153.31699982 329.54649902 -154.43690491 329.55322266 C-162.02413163 329.45807404 -167.26455856 328.14702677 -173.20703125 323.140625 C-174.00173828 322.20476562 -174.00173828 322.20476562 -174.8125 321.25 C-175.62654297 320.32960938 -175.62654297 320.32960938 -176.45703125 319.390625 C-181.6716591 311.31125222 -181.43064767 303.41767065 -181.38818359 294.08203125 C-181.39225392 292.57660543 -181.39759839 291.0711826 -181.40411377 289.56576538 C-181.41773841 285.49550869 -181.4125089 281.42548127 -181.40297651 277.35522079 C-181.39535467 273.085522 -181.40243252 268.81584218 -181.40713501 264.54614258 C-181.41258523 257.37740574 -181.40542025 250.20876178 -181.39111328 243.04003906 C-181.37478816 234.7647892 -181.38007719 226.48976113 -181.3965925 218.21451664 C-181.41022832 211.09579864 -181.4121168 203.97714722 -181.40427649 196.85842037 C-181.39961148 192.61274012 -181.39894276 188.36716395 -181.40888596 184.12149048 C-181.41758392 180.12900084 -181.41148238 176.13679576 -181.39420319 172.1443367 C-181.3902534 170.683493 -181.39134643 169.22262515 -181.39799118 167.76179123 C-181.44114793 157.3058861 -180.73550028 147.81152485 -173 140 C-166.1753066 135.27521226 -160.58512636 133.85422498 -152.36083984 133.84228516 C-151.59603302 133.83720444 -150.8312262 133.83212372 -150.04324341 133.82688904 C-148.3845267 133.81620298 -146.72579573 133.80757591 -145.06705856 133.80076981 C-142.4343296 133.78894297 -139.80176189 133.76947812 -137.1690979 133.74765015 C-129.68423908 133.68617815 -122.19939599 133.63211895 -114.71435547 133.59863281 C-110.13194261 133.57758343 -105.54982312 133.54219519 -100.96757889 133.49787521 C-99.22865905 133.48379233 -97.48968729 133.47501036 -95.75071335 133.47182083 C-83.64045237 133.53407875 -83.64045237 133.53407875 -71.94570923 130.6578064 C-68.89825082 129.62752006 -66.18518045 129.79227084 -63 130 C-62.92523438 129.05382812 -62.85046875 128.10765625 -62.7734375 127.1328125 C-60.18477643 99.44123127 -46.64448137 76.34318564 -27 57 C-27.7425 56.319375 -28.485 55.63875 -29.25 54.9375 C-35.5151119 48.63689172 -38.05085019 41.06646099 -38.3125 32.25 C-38.22800616 26.16644339 -36.90233729 20.75230562 -35 15 C-31.4142149 14.05082159 -29.62245994 13.70275789 -26.21875 15.328125 C-25.3215625 15.96234375 -24.424375 16.5965625 -23.5 17.25 C-22.55125 17.89582031 -21.6025 18.54164062 -20.625 19.20703125 C-19.75875 19.79871094 -18.8925 20.39039062 -18 21 C-14.90750192 22.81434867 -12.67215357 24 -9 24 C-8.40251953 22.15535156 -8.40251953 22.15535156 -7.79296875 20.2734375 C-7.25805578 18.64054528 -6.72288592 17.00773721 -6.1875 15.375 C-5.92646484 14.56675781 -5.66542969 13.75851563 -5.39648438 12.92578125 C-3.90936817 8.40935427 -2.26420528 4.20203863 0 0 Z M217 170 C216.608125 171.11375 216.21625 172.2275 215.8125 173.375 C211.49147618 184.78331055 206.96259073 193.7954133 195.50390625 199.00390625 C188.31796534 201.86258789 181.910965 202.28082136 174 203 C174.66 214.88 175.32 226.76 176 239 C176.66 237.68 177.32 236.36 178 235 C180.2940043 231.76719527 182.12517524 229.29160825 186 228 C190.83052106 227.49283686 194.77807666 227.40101797 199.1875 229.5625 C201.37390065 231.45738056 203.32041067 233.35444769 205.3125 235.4375 C210.61589875 240.82213243 215.85905843 244.24285512 223.5625 244.5625 C232.53734229 244.06320418 237.85058011 239.87759 243.94921875 233.515625 C248.79332122 227.57352597 252.40596188 220.27425139 252.27734375 212.5 C250.90409589 200.12142773 244.53812213 187.1356808 234.81640625 179.22265625 C229.21101316 175.08638334 223.5803853 172.25413198 217 170 Z M145 245 C145.33 246.32 145.66 247.64 146 249 C146.33 247.68 146.66 246.36 147 245 C146.34 245 145.68 245 145 245 Z " fill="#030202" transform="translate(206,61)"/>
<path d="M0 0 C0.97564407 -0.00860046 1.95128815 -0.01720093 2.95649719 -0.02606201 C4.03077469 -0.03032196 5.10505219 -0.03458191 6.21188354 -0.03897095 C7.34049301 -0.04714844 8.46910248 -0.05532593 9.63191223 -0.06375122 C13.38105738 -0.08863967 17.13016452 -0.10513171 20.87936401 -0.11953735 C22.15835445 -0.12486103 23.43734489 -0.13018471 24.75509262 -0.13566971 C30.13206764 -0.15690866 35.50902934 -0.17603717 40.88603401 -0.1872921 C48.58286621 -0.20350982 56.27919182 -0.23662781 63.97583306 -0.29369295 C70.0456112 -0.33715423 76.11519162 -0.35304669 82.18511581 -0.35942459 C84.76308671 -0.36614074 87.34105015 -0.38137205 89.91891861 -0.4053154 C93.5312867 -0.43694788 97.14238195 -0.43700539 100.75485229 -0.42959595 C102.34805046 -0.45420395 102.34805046 -0.45420395 103.97343445 -0.47930908 C110.60459438 -0.42373459 115.46635905 0.45779446 120.37155151 5.15390015 C125.81736894 11.54875417 124.93129221 19.88630837 124.8732605 27.81234741 C124.87704852 29.28984084 124.88255253 30.7673307 124.88963318 32.24481201 C124.90354104 36.23863499 124.89245173 40.23202491 124.87592196 44.22582364 C124.86202368 48.41457497 124.86853687 52.60330238 124.87205505 56.79206848 C124.87475311 63.82380107 124.86131544 70.85536257 124.83810425 77.88705444 C124.81148667 86.00669198 124.80975219 94.12604373 124.82149261 102.24570996 C124.83228571 110.07110521 124.82607198 117.8963975 124.81193733 125.72178459 C124.80619185 129.04579044 124.80624884 132.36972058 124.81100273 135.69372749 C124.81578833 139.60990037 124.80560571 143.52576178 124.78404808 147.44187546 C124.77850191 148.87571983 124.77799492 150.30959427 124.78300095 151.74344063 C124.83007062 167.16330118 124.83007062 167.16330118 118.93405151 173.96640015 C115.12375499 177.2190923 112.5048532 178.40157852 107.48913574 178.42132568 C106.01721016 178.43412064 106.01721016 178.43412064 104.51554871 178.44717407 C102.91020515 178.44581451 102.91020515 178.44581451 101.27243042 178.44442749 C100.14031631 178.45114471 99.00820221 178.45786194 97.84178162 178.46478271 C94.09384795 178.48380333 90.34609296 178.48768896 86.59811401 178.48983765 C83.99503505 178.4962626 81.39195682 178.50299073 78.78887939 178.51000977 C73.32977127 178.52279603 67.87071165 178.52577513 62.41159058 178.52450562 C56.10854231 178.52330441 49.80583657 178.54440331 43.50287497 178.57599294 C37.43200296 178.60533141 31.36129489 178.6124808 25.29035568 178.61128616 C22.71075415 178.61364751 20.13115013 178.62250088 17.55159378 178.6379509 C13.94392688 178.65753559 10.33714263 178.65180148 6.72946167 178.63973999 C5.6632811 178.650979 4.59710052 178.66221802 3.49861145 178.67379761 C-2.54274853 178.62244526 -6.03028165 178.18365773 -10.62844849 174.15390015 C-14.71605526 169.51391408 -15.75261955 167.17100025 -15.77561951 161.03140259 C-15.78277481 159.72471619 -15.78993011 158.41802979 -15.79730225 157.07174683 C-15.80014266 155.61508202 -15.80285437 154.15841697 -15.80545044 152.70175171 C-15.81171397 151.17426396 -15.81836067 149.64677775 -15.82536316 148.11929321 C-15.84278402 143.96212188 -15.85332805 139.80496205 -15.86156869 135.64776325 C-15.86671696 133.05096804 -15.8727928 130.45417641 -15.87907982 127.85738373 C-15.89813566 119.73407925 -15.91236548 111.61078387 -15.92069179 103.48746133 C-15.93046412 94.10791082 -15.95678179 84.72859631 -15.99719268 75.34912896 C-16.02734784 68.10149441 -16.04216012 60.85392752 -16.0454728 53.60623145 C-16.04782414 49.27661919 -16.05679518 44.94725894 -16.08193398 40.61771393 C-16.1052091 36.54321458 -16.10945035 32.46913324 -16.09917259 28.39458466 C-16.09867697 26.90063588 -16.10500539 25.40666658 -16.11872864 23.91278076 C-16.13644093 21.87004121 -16.12695829 19.82712026 -16.11619568 17.78433228 C-16.11858403 16.64206303 -16.12097239 15.49979378 -16.12343311 14.32291031 C-15.3325726 9.25963185 -12.78132965 6.16953356 -9.00344849 2.84140015 C-5.6919055 0.48846171 -4.00901868 0.02626428 0 0 Z " fill="#DCDCDC" transform="translate(49.628448486328125,203.84609985351563)"/>
<path d="M0 0 C0.78761719 -0.01023193 1.57523438 -0.02046387 2.38671875 -0.03100586 C11.45408813 0.10428565 19.54236182 2.77442807 26.15625 9.15625 C32.02905475 15.427211 34.87094091 22.29930797 37.375 30.4375 C39.82996739 30.33182113 39.82996739 30.33182113 42.375 29.4375 C43.64336705 27.21631806 43.64336705 27.21631806 44.3125 24.4375 C47.27008204 15.35265637 51.86685405 8.16424775 60.375 3.4375 C66.19052926 0.66337799 71.3478245 -0.04970574 77.75 0.0625 C79.00780273 0.07772705 79.00780273 0.07772705 80.29101562 0.09326172 C86.40207667 0.24639437 91.76584228 0.86663604 97.375 3.4375 C98.261875 3.8396875 99.14875 4.241875 100.0625 4.65625 C115.30315638 12.27657819 125.43073797 25.25280125 131.34765625 41.03125 C138.97621296 66.29419129 129.65994883 94.50193937 118.0625 117.0625 C117.53789185 118.03968994 117.53789185 118.03968994 117.00268555 119.03662109 C115.00116182 122.8286185 113.56525558 126.12299434 113.375 130.4375 C114.26596723 132.29421504 114.26596723 132.29421504 115.75 133.75 C118.90586019 137.7633348 119.7886137 141.35093157 119.375 146.4375 C117.31607355 154.52069272 110.56941111 159.80173713 103.7890625 164.0625 C90.05921587 171.4466192 73.05598799 176.72260887 57.375 176.4375 C57.77332031 175.880625 58.17164063 175.32375 58.58203125 174.75 C59.11183594 173.986875 59.64164062 173.22375 60.1875 172.4375 C60.70957031 171.695 61.23164063 170.9525 61.76953125 170.1875 C66.36274012 162.31981376 67.54098977 153.94264868 69 145.0625 C69.2165625 143.79921875 69.433125 142.5359375 69.65625 141.234375 C71.51802896 130.89301231 71.51802896 130.89301231 72.375 120.4375 C70.574382 118.636882 67.84515876 119.30981616 65.41821289 119.30810547 C63.50601707 119.30337723 63.50601707 119.30337723 61.55519104 119.29855347 C60.1526791 119.30034344 58.75016746 119.30239444 57.34765625 119.3046875 C55.91898075 119.30401435 54.49030536 119.30304423 53.06163025 119.30178833 C50.06296705 119.3003114 47.06433358 119.30246543 44.06567383 119.30712891 C40.21747242 119.31282106 36.36934084 119.30955043 32.52114201 119.30355644 C29.5692441 119.2999463 26.6173628 119.30109159 23.6654644 119.30368423 C22.24645416 119.30435252 20.82744241 119.30352852 19.40843391 119.30120468 C17.42601677 119.29867137 15.44359437 119.30321569 13.46118164 119.30810547 C12.33168594 119.30890106 11.20219025 119.30969666 10.03846741 119.31051636 C7.4002421 119.25649903 7.4002421 119.25649903 5.375 120.4375 C5.97420896 127.02879853 7.03334426 133.48715029 8.22241211 139.99267578 C8.99743833 144.23693348 9.65942243 148.47534333 10.25 152.75 C11.73870084 161.69450837 15.01639442 169.89721998 21.375 176.4375 C15.05595271 176.6788525 9.5092567 175.86363858 3.375 174.375 C2.45871826 174.15312012 1.54243652 173.93124023 0.59838867 173.70263672 C-13.77506759 170.04266517 -30.63122778 164.19400084 -38.62109375 150.83203125 C-40.37769637 146.64215808 -40.64609466 142.85979486 -39.625 138.4375 C-38.48294076 136.45165128 -37.29246944 134.86427329 -35.71875 133.203125 C-34.01433092 130.45170563 -34.24199464 128.63426753 -34.625 125.4375 C-35.67794461 122.67035868 -37.03166674 120.10239186 -38.4375 117.5 C-39.84776204 114.81973706 -41.24105274 112.13143019 -42.625 109.4375 C-43.19734375 108.34050781 -43.7696875 107.24351562 -44.359375 106.11328125 C-46.33246571 100.38279249 -46.06034149 94.71823619 -46.06445312 88.70703125 C-46.21005617 81.44696238 -47.46184173 75.08232101 -52.34375 69.45703125 C-54.54659783 65.98485952 -54.15469392 62.14495488 -54.125 58.125 C-54.11927979 57.23433838 -54.11355957 56.34367676 -54.10766602 55.42602539 C-53.66483341 38.79669185 -46.21674002 25.09112514 -34.29296875 13.7265625 C-23.96442528 4.86488391 -13.58329157 0.13556967 0 0 Z " fill="#FABB98" transform="translate(227.625,135.5625)"/>
<path d="M0 0 C1.010625 0.804375 2.02125 1.60875 3.0625 2.4375 C8.78965962 6.70519012 14.81560525 10.40028352 21.03955078 13.88623047 C22.85120595 14.91546719 24.62873111 16.00416602 26.40234375 17.09765625 C36.03163906 22.52576896 45.75587787 22.53838018 56.54187012 22.64599609 C90.78612174 23.00268641 121.83276882 34.40679964 146 59 C146.74765625 59.74894531 147.4953125 60.49789062 148.265625 61.26953125 C164.92230064 78.94265757 173.72024407 102.82381429 173.54296875 126.97314453 C172.87773129 145.92894737 165.94120051 166.22752571 153.625 180.8125 C151.60430346 183.53266841 151.59879551 184.67148869 152 188 C153.4570294 190.2357511 153.4570294 190.2357511 155.4375 192.1875 C159.73379652 196.72681936 160.37281154 199.24187888 160.265625 205.4765625 C159.59111614 211.8843967 154.34308407 215.96859575 149.71875 219.9609375 C144.87126978 223.59654767 139.58360521 226.63678115 134 229 C133.34 228.67 132.68 228.34 132 228 C132.45890625 227.61070312 132.9178125 227.22140625 133.390625 226.8203125 C139.78552928 220.98966448 143.08457524 214.59891989 143.5 205.875 C143.32974355 201.55048618 142.13730935 198.407782 139.97265625 194.69140625 C139 193 139 193 138 190 C138.64916992 188.07397461 138.64916992 188.07397461 139.73046875 185.90234375 C140.11952393 185.10602539 140.5085791 184.30970703 140.90942383 183.48925781 C141.33118896 182.64717773 141.7529541 181.80509766 142.1875 180.9375 C143.03046926 179.20270777 143.87163856 177.46703967 144.7109375 175.73046875 C145.11280273 174.90337402 145.51466797 174.0762793 145.92871094 173.22412109 C150.1487604 164.462806 152.7522485 155.42862133 155 146 C155.22945312 145.04609375 155.45890625 144.0921875 155.6953125 143.109375 C159.91449902 122.3105682 156.93085141 102.23977388 146 84 C136.26611258 69.60507802 122.11594908 60.33885206 105.2421875 56.50390625 C92.02830858 54.4501829 80.69961338 56.08008545 69.39453125 63.18359375 C65.32423417 66.27117636 62.2336089 70.07934256 59 74 C58.01351168 75.01333154 57.01851368 76.01886297 56 77 C55.5875 76.34773438 55.175 75.69546875 54.75 75.0234375 C48.05740258 64.89490836 40.17797924 58.87533811 28.11328125 56.41015625 C11.34184494 54.20061947 -3.96310821 58.57282632 -17.7421875 68.21972656 C-31.07816187 78.48491736 -40.60104939 94.3083542 -43 111 C-43.43142517 115.66633434 -43.72738594 120.32012526 -44 125 C-50.93 124.505 -50.93 124.505 -58 124 C-59.02984889 99.02616431 -48.42688696 76.98901 -31.75 58.875 C-28.87552211 55.77848619 -26.01827563 52.98943973 -22.640625 50.4453125 C-19.80777398 48.27513118 -19.80777398 48.27513118 -19.36328125 45.35546875 C-19.7839932 42.88471276 -19.7839932 42.88471276 -21.79296875 41.55078125 C-22.97826172 40.93783203 -22.97826172 40.93783203 -24.1875 40.3125 C-29.64803779 36.93626843 -32.19428087 33.14470442 -34 27 C-34.45305793 23.27432146 -34.6122323 19.71206109 -34 16 C-33.34 15.34 -32.68 14.68 -32 14 C-31.5153125 14.32613281 -31.030625 14.65226562 -30.53125 14.98828125 C-22.67497898 20.10996563 -16.46155508 22.59134719 -7 22 C-6.74605469 20.91460937 -6.49210937 19.82921875 -6.23046875 18.7109375 C-5.88319618 17.26553276 -5.53551836 15.82022535 -5.1875 14.375 C-5.02185547 13.66214844 -4.85621094 12.94929688 -4.68554688 12.21484375 C-3.61290285 7.80283625 -2.20707645 4.00941682 0 0 Z " fill="#863508" transform="translate(210,72)"/>
<path d="M0 0 C1.04321411 -0.00563965 2.08642822 -0.0112793 3.16125488 -0.01708984 C4.31041382 -0.01304138 5.45957275 -0.00899292 6.64355469 -0.00482178 C7.8500769 -0.00832642 9.05659912 -0.01183105 10.29968262 -0.01544189 C13.61372989 -0.02275082 16.9275284 -0.02101698 20.24156189 -0.01468372 C23.70531557 -0.00962971 27.16905842 -0.0143135 30.6328125 -0.01745605 C36.45021479 -0.02109746 42.26756634 -0.01629206 48.08496094 -0.0067749 C54.81624543 0.00411001 61.54740878 0.00058455 68.27869034 -0.01042771 C74.0519731 -0.01949566 79.82521934 -0.02078829 85.59850693 -0.01555037 C89.04929338 -0.01242795 92.50002284 -0.01202876 95.95080566 -0.01862335 C99.79635347 -0.02545866 103.64176493 -0.01599209 107.48730469 -0.00482178 C109.21104309 -0.01089447 109.21104309 -0.01089447 110.96960449 -0.01708984 C112.53442566 -0.00863037 112.53442566 -0.00863037 114.13085938 0 C115.04083679 0.00075405 115.95081421 0.0015081 116.8883667 0.002285 C119.06542969 0.25396729 119.06542969 0.25396729 121.06542969 2.25396729 C121.3261261 4.10673523 121.3261261 4.10673523 121.34008789 6.38067627 C121.3496199 7.23173447 121.35915192 8.08279266 121.36897278 8.9596405 C121.36760567 10.34089867 121.36760567 10.34089867 121.36621094 11.75006104 C121.37049606 12.69454605 121.37478119 13.63903107 121.37919617 14.61213684 C121.38494555 16.61196083 121.38543527 18.61180574 121.38110352 20.6116333 C121.37794592 23.67571632 121.40138694 26.73883204 121.42675781 29.80279541 C121.42903093 31.7435494 121.42973424 33.68430599 121.42871094 35.62506104 C121.43792068 36.54387558 121.44713043 37.46269012 121.45661926 38.40934753 C121.45039047 39.26355789 121.44416168 40.11776825 121.43774414 40.99786377 C121.43837357 41.74905991 121.43900299 42.50025604 121.43965149 43.2742157 C120.94767572 45.87692299 120.14198699 46.63039481 118.06542969 48.25396729 C115.78093624 48.6286974 115.78093624 48.6286974 113.04856873 48.62818909 C112.0123941 48.6352034 110.97621948 48.64221771 109.90864563 48.64944458 C108.20432625 48.63797897 108.20432625 48.63797897 106.46557617 48.62628174 C105.2686615 48.6299324 104.07174683 48.63358307 102.83856201 48.63734436 C99.55551924 48.64406747 96.27284536 48.63732769 92.98983264 48.62401223 C89.55678428 48.61270361 86.12375072 48.61680472 82.69068909 48.61875916 C76.92631148 48.6196422 71.16205146 48.60855863 65.39770508 48.59014893 C58.72830869 48.56897105 52.05908446 48.56547346 45.38966125 48.57171088 C38.97866947 48.57740016 32.56773846 48.57176471 26.15675545 48.56053734 C23.42592307 48.55588656 20.6951278 48.55501955 17.96429253 48.55712318 C14.15472276 48.55749232 10.34541869 48.54491637 6.53588867 48.52862549 C5.39765152 48.53110291 4.25941437 48.53358032 3.08668518 48.53613281 C2.05333038 48.529048 1.01997559 48.5219632 -0.04469299 48.5146637 C-1.39664937 48.51158439 -1.39664937 48.51158439 -2.77591801 48.50844288 C-4.93457031 48.25396729 -4.93457031 48.25396729 -6.93457031 46.25396729 C-7.1885376 44.35650635 -7.1885376 44.35650635 -7.19335938 42.01959229 C-7.1996637 41.14528564 -7.20596802 40.270979 -7.21246338 39.37017822 C-7.20841492 38.42432861 -7.20436646 37.478479 -7.20019531 36.50396729 C-7.20210876 35.53491455 -7.20402222 34.56586182 -7.20599365 33.56744385 C-7.2073561 31.51633444 -7.20365549 29.46521643 -7.1953125 27.41412354 C-7.18461391 24.26679189 -7.19520585 21.12003108 -7.20800781 17.97271729 C-7.20668623 15.98313269 -7.20412386 13.99354844 -7.20019531 12.00396729 C-7.20424377 11.05811768 -7.20829224 10.11226807 -7.21246338 9.13775635 C-7.20615906 8.26344971 -7.19985474 7.38914307 -7.19335938 6.48834229 C-7.19176819 5.71716064 -7.190177 4.945979 -7.1885376 4.15142822 C-6.60367452 -0.21824812 -3.67480129 0.00304512 0 0 Z " fill="#7FC582" transform="translate(46.9345703125,215.74603271484375)"/>
<path d="M0 0 C3.07143926 -0.05979236 5.94772513 0.06628716 9 0.3125 C19.0509541 0.94419642 29.05828778 1.13650022 39.125 1.125 C39.8558783 1.12456696 40.58675659 1.12413391 41.33978271 1.12368774 C52.91444897 1.1062082 64.45080402 0.79453928 76 0 C83.2176546 13.83094976 85.5692272 28.77316053 81.4375 44 C78.03406204 53.46581182 72.99169793 59.36890371 63.921875 63.78125 C48.33247991 70.28377843 29.70947038 70.1919199 14 64 C4.27106323 59.40950042 -2.15730184 52.62117571 -5.9375 42.5 C-9.2981358 29.01518465 -7.16909661 15.67211866 -2 3 C-1.34 2.01 -0.68 1.02 0 0 Z " fill="#FABB98" transform="translate(229,319)"/>
<path d="M0 0 C1.84352982 0.20483665 3.68647763 0.41860687 5.5234375 0.67578125 C10.00050635 1.26189594 14.50218113 1.61140168 19 2 C18.01 2.33 17.02 2.66 16 3 C14.87082804 5.77077941 14.87082804 5.77077941 14 9 C13.64679688 9.92296875 13.29359375 10.8459375 12.9296875 11.796875 C8.72299337 23.57561857 7.50607262 38.38306959 13 50 C17.39802476 59.00547928 24.14225066 63.68701019 33.34375 67.3203125 C49.45169513 72.3277824 66.47663454 71.61333411 81.8671875 64.71484375 C89.84370632 60.46622319 94.07416169 54.50577165 96.875 46 C100.17845166 31.97999384 98.42948403 16.85896806 92 4 C91.01 3.01 91.01 3.01 90 2 C92.22850277 1.66225668 94.45783467 1.3299813 96.6875 1 C98.54955078 0.7215625 98.54955078 0.7215625 100.44921875 0.4375 C103.35886371 0.07899589 106.07700022 -0.08942256 109 0 C109.64715133 2.0829243 110.29267166 4.16635539 110.9375 6.25 C111.47697266 7.99023438 111.47697266 7.99023438 112.02734375 9.765625 C116.81543959 25.68748587 114.57829419 45.11894401 107.18359375 60.0234375 C98.83084448 73.97225311 86.78068835 82.3044472 71.12036133 86.39355469 C65.35311605 87.51442452 59.60888074 87.52990007 53.75 87.5 C52.46963867 87.49500488 51.18927734 87.49000977 49.87011719 87.48486328 C36.37526157 87.23597571 25.75752051 84.51819991 15 76 C14.08347656 75.34257812 14.08347656 75.34257812 13.1484375 74.671875 C2.85372937 66.78077714 -2.89293695 53.29878909 -4.6796875 40.7265625 C-5.84819636 27.13195939 -6.23159484 13.83736725 -1 1 C-0.67 0.67 -0.34 0.34 0 0 Z " fill="#863508" transform="translate(213,316)"/>
<path d="M0 0 C1.04321411 -0.00563965 2.08642822 -0.0112793 3.16125488 -0.01708984 C4.31041382 -0.01304138 5.45957275 -0.00899292 6.64355469 -0.00482178 C7.8500769 -0.00832642 9.05659912 -0.01183105 10.29968262 -0.01544189 C13.61372989 -0.02275082 16.9275284 -0.02101698 20.24156189 -0.01468372 C23.70531557 -0.00962971 27.16905842 -0.0143135 30.6328125 -0.01745605 C36.45021479 -0.02109746 42.26756634 -0.01629206 48.08496094 -0.0067749 C54.81624543 0.00411001 61.54740878 0.00058455 68.27869034 -0.01042771 C74.0519731 -0.01949566 79.82521934 -0.02078829 85.59850693 -0.01555037 C89.04929338 -0.01242795 92.50002284 -0.01202876 95.95080566 -0.01862335 C99.79635347 -0.02545866 103.64176493 -0.01599209 107.48730469 -0.00482178 C109.21104309 -0.01089447 109.21104309 -0.01089447 110.96960449 -0.01708984 C112.53442566 -0.00863037 112.53442566 -0.00863037 114.13085938 0 C115.04083679 0.00075405 115.95081421 0.0015081 116.8883667 0.002285 C119.06542969 0.25396729 119.06542969 0.25396729 121.06542969 2.25396729 C121.3261261 4.10673523 121.3261261 4.10673523 121.34008789 6.38067627 C121.3496199 7.23173447 121.35915192 8.08279266 121.36897278 8.9596405 C121.36760567 10.34089867 121.36760567 10.34089867 121.36621094 11.75006104 C121.37049606 12.69454605 121.37478119 13.63903107 121.37919617 14.61213684 C121.38494555 16.61196083 121.38543527 18.61180574 121.38110352 20.6116333 C121.37794592 23.67571632 121.40138694 26.73883204 121.42675781 29.80279541 C121.42903093 31.7435494 121.42973424 33.68430599 121.42871094 35.62506104 C121.43792068 36.54387558 121.44713043 37.46269012 121.45661926 38.40934753 C121.45039047 39.26355789 121.44416168 40.11776825 121.43774414 40.99786377 C121.43837357 41.74905991 121.43900299 42.50025604 121.43965149 43.2742157 C120.94767572 45.87692299 120.14198699 46.63039481 118.06542969 48.25396729 C115.78093624 48.6286974 115.78093624 48.6286974 113.04856873 48.62818909 C112.0123941 48.6352034 110.97621948 48.64221771 109.90864563 48.64944458 C108.20432625 48.63797897 108.20432625 48.63797897 106.46557617 48.62628174 C105.2686615 48.6299324 104.07174683 48.63358307 102.83856201 48.63734436 C99.55551924 48.64406747 96.27284536 48.63732769 92.98983264 48.62401223 C89.55678428 48.61270361 86.12375072 48.61680472 82.69068909 48.61875916 C76.92631148 48.6196422 71.16205146 48.60855863 65.39770508 48.59014893 C58.72830869 48.56897105 52.05908446 48.56547346 45.38966125 48.57171088 C38.97866947 48.57740016 32.56773846 48.57176471 26.15675545 48.56053734 C23.42592307 48.55588656 20.6951278 48.55501955 17.96429253 48.55712318 C14.15472276 48.55749232 10.34541869 48.54491637 6.53588867 48.52862549 C5.39765152 48.53110291 4.25941437 48.53358032 3.08668518 48.53613281 C2.05333038 48.529048 1.01997559 48.5219632 -0.04469299 48.5146637 C-1.39664937 48.51158439 -1.39664937 48.51158439 -2.77591801 48.50844288 C-4.93457031 48.25396729 -4.93457031 48.25396729 -6.93457031 46.25396729 C-7.1885376 44.35650635 -7.1885376 44.35650635 -7.19335938 42.01959229 C-7.1996637 41.14528564 -7.20596802 40.270979 -7.21246338 39.37017822 C-7.20841492 38.42432861 -7.20436646 37.478479 -7.20019531 36.50396729 C-7.20210876 35.53491455 -7.20402222 34.56586182 -7.20599365 33.56744385 C-7.2073561 31.51633444 -7.20365549 29.46521643 -7.1953125 27.41412354 C-7.18461391 24.26679189 -7.19520585 21.12003108 -7.20800781 17.97271729 C-7.20668623 15.98313269 -7.20412386 13.99354844 -7.20019531 12.00396729 C-7.20424377 11.05811768 -7.20829224 10.11226807 -7.21246338 9.13775635 C-7.20615906 8.26344971 -7.19985474 7.38914307 -7.19335938 6.48834229 C-7.19176819 5.71716064 -7.190177 4.945979 -7.1885376 4.15142822 C-6.60367452 -0.21824812 -3.67480129 0.00304512 0 0 Z M1.06542969 8.25396729 C1.06542969 18.81396729 1.06542969 29.37396729 1.06542969 40.25396729 C38.02542969 40.25396729 74.98542969 40.25396729 113.06542969 40.25396729 C113.06542969 29.69396729 113.06542969 19.13396729 113.06542969 8.25396729 C76.10542969 8.25396729 39.14542969 8.25396729 1.06542969 8.25396729 Z " fill="#000000" transform="translate(46.9345703125,215.74603271484375)"/>
<path d="M0 0 C15.33613093 0.90212535 29.18459204 9.20550466 39.58203125 20.1484375 C52.21718652 35.04934759 57.74446087 51.00370319 56.28662109 70.56152344 C54.59733731 84.93338583 45.75140285 96.81467711 35 106 C31.79567203 108.31115309 28.53309848 110.23627724 25 112 C24.32839844 112.3403125 23.65679687 112.680625 22.96484375 113.03125 C13.95628292 116.78047763 1.8300207 116.52548584 -7.25 113.125 C-16.41185077 108.68940052 -24.86693489 102.12547646 -31 94 C-31.55791584 91.00120237 -31.47526584 89.76570608 -29.875 87.1875 C-26.93642688 85.32640369 -25.42733641 85.34089684 -22 86 C-20.19131555 87.53670182 -18.65821448 89.23156119 -17.05859375 90.984375 C-10.3389342 97.563776 -1.8732934 102.24236742 7.5625 102.5 C17.14345284 102.33948142 24.41434103 98.73606858 31.375 92.25 C40.20228189 82.66872112 43.61502559 73.23990035 43.30859375 60.4296875 C42.58319316 46.40928942 35.53360848 34.58965678 25.51953125 25.0703125 C18.47950615 19.28548568 10.72601424 15.4723707 2 13 C1.01 6.565 1.01 6.565 0 0 Z " fill="#843307" transform="translate(421,210)"/>
<path d="M0 0 C0.65830811 -0.00191345 1.31661621 -0.0038269 1.99487305 -0.00579834 C3.3868854 -0.0071595 4.77891047 -0.00346783 6.17089844 0.00488281 C8.30432589 0.015584 10.43691131 0.00498594 12.5703125 -0.0078125 C13.92187686 -0.00649089 15.2734407 -0.00392847 16.625 0 C18.47544922 0.00338379 18.47544922 0.00338379 20.36328125 0.00683594 C23.3125 0.265625 23.3125 0.265625 25.3125 2.265625 C25.56646729 4.61865234 25.56646729 4.61865234 25.57128906 7.6015625 C25.57759338 8.71611816 25.58389771 9.83067383 25.59039307 10.97900391 C25.5863446 12.18733887 25.58229614 13.39567383 25.578125 14.640625 C25.58099518 16.49373291 25.58099518 16.49373291 25.58392334 18.38427734 C25.5856361 21.67153907 25.57756699 24.95861287 25.56640625 28.24584961 C25.56250397 30.2635703 25.56639171 32.28111701 25.57324219 34.29882812 C25.58556004 38.16284328 25.58410978 42.02659928 25.578125 45.890625 C25.58217346 47.09895996 25.58622192 48.30729492 25.59039307 49.55224609 C25.58408875 50.66680176 25.57778442 51.78135742 25.57128906 52.9296875 C25.56969788 53.91404785 25.56810669 54.8984082 25.56646729 55.91259766 C25.3125 58.265625 25.3125 58.265625 23.3125 60.265625 C20.36328125 60.52441406 20.36328125 60.52441406 16.625 60.53125 C15.96669189 60.53316345 15.30838379 60.5350769 14.63012695 60.53704834 C13.2381146 60.5384095 11.84608953 60.53471783 10.45410156 60.52636719 C8.32067411 60.515666 6.18808869 60.52626406 4.0546875 60.5390625 C2.70312314 60.53774089 1.3515593 60.53517847 0 60.53125 C-1.23363281 60.52899414 -2.46726563 60.52673828 -3.73828125 60.52441406 C-6.6875 60.265625 -6.6875 60.265625 -8.6875 58.265625 C-8.94146729 55.91259766 -8.94146729 55.91259766 -8.94628906 52.9296875 C-8.95259338 51.81513184 -8.95889771 50.70057617 -8.96539307 49.55224609 C-8.9613446 48.34391113 -8.95729614 47.13557617 -8.953125 45.890625 C-8.95503845 44.65521973 -8.9569519 43.41981445 -8.95892334 42.14697266 C-8.9606361 38.85971093 -8.95256699 35.57263713 -8.94140625 32.28540039 C-8.93750397 30.2676797 -8.94139171 28.25013299 -8.94824219 26.23242188 C-8.96056004 22.36840672 -8.95910978 18.50465072 -8.953125 14.640625 C-8.95717346 13.43229004 -8.96122192 12.22395508 -8.96539307 10.97900391 C-8.95908875 9.86444824 -8.95278442 8.74989258 -8.94628906 7.6015625 C-8.94469788 6.61720215 -8.94310669 5.6328418 -8.94146729 4.61865234 C-8.35862508 -0.78142764 -4.48016999 0.00819258 0 0 Z " fill="#080808" transform="translate(136.6875,305.734375)"/>
<path d="M0 0 C5.77734332 2.48961805 10.33023772 7.97727004 13.01171875 13.55859375 C14.98341539 19.72375252 14.44614489 25.43335332 11.8125 31.3125 C8.61797113 37.1082881 4.09302722 40.96899093 -2.1875 43.0625 C-10.20155031 43.87626603 -16.82481788 44.03177686 -23.34765625 38.91796875 C-28.22049583 34.00374625 -31.27133631 28.47672992 -31.5625 21.5 C-31.46632172 15.51071617 -29.78505629 10.8564913 -26.1875 6.0625 C-18.31276456 -0.63102512 -10.16517783 -3.01115606 0 0 Z " fill="#050504" transform="translate(319.1875,175.9375)"/>
<path d="M0 0 C5.16691514 3.02479824 9.43504706 7.84866083 11.625 13.4375 C12.48892098 20.82175093 12.74783247 27.71543004 8.1171875 33.82421875 C3.63653064 38.66848913 -0.72000884 42.03961489 -7.4609375 42.7734375 C-14.38745815 42.85570022 -18.88287207 42.80878549 -24.375 38.4375 C-29.94674632 32.96941407 -32.64438583 28.14368896 -32.875 20.1875 C-32.76034398 13.43043861 -31.02137127 9.30705941 -26.375 4.4375 C-19.0425163 -1.99775996 -9.16572524 -4.14851007 0 0 Z " fill="#040303" transform="translate(234.375,176.5625)"/>
<path d="M0 0 C1.010625 0.804375 2.02125 1.60875 3.0625 2.4375 C8.78965962 6.70519012 14.81560525 10.40028352 21.03955078 13.88623047 C22.85120595 14.91546719 24.62873111 16.00416602 26.40234375 17.09765625 C36.03163906 22.52576896 45.75587787 22.53838018 56.54187012 22.64599609 C89.79793854 22.99239343 120.92014808 33.72542666 144.625 57.58789062 C149.94744283 63.05397893 154.70672296 68.69424935 159 75 C158.67 75.66 158.34 76.32 158 77 C156.83984375 75.71416016 156.83984375 75.71416016 155.65625 74.40234375 C134.07022327 50.62501879 105.55190156 34.39839758 73 32 C70.40941533 31.93771979 67.82508161 31.89413687 65.234375 31.87890625 C37.64039392 31.69405085 37.64039392 31.69405085 25 23 C23.83473477 22.3128841 22.66275001 21.6370384 21.484375 20.97265625 C14.61603349 17.01316714 8.68290913 12.52137941 3 7 C0.34352515 9.65647485 -0.32092773 12.27309248 -1.5625 15.8125 C-1.99691406 17.03582031 -2.43132812 18.25914063 -2.87890625 19.51953125 C-3.79354998 22.35906981 -4.50245842 25.0650637 -5 28 C-14.11111889 28.77212872 -22.38796803 26.07468798 -30 21 C-26.97344639 31.65267223 -21.6967901 39.42434569 -12 45 C-13.25092864 48.75278592 -14.74857418 49.5594679 -17.875 51.9375 C-36.72132533 67.07795023 -50.31505477 88.43116459 -56 112 C-56.33 112 -56.66 112 -57 112 C-57.30020993 106.30351659 -56.34248784 101.81379694 -54.5 96.4375 C-54.10059204 95.26102905 -54.10059204 95.26102905 -53.69311523 94.06079102 C-49.73054384 82.89416278 -43.72101448 72.99424731 -36 64 C-34.91525391 62.73349609 -34.91525391 62.73349609 -33.80859375 61.44140625 C-30.38159136 57.53891453 -27.02176007 53.90540187 -22.9375 50.6875 C-19.80410841 48.3676014 -19.80410841 48.3676014 -19.5546875 45.5 C-19.73823173 42.88776216 -19.73823173 42.88776216 -21.79296875 41.55078125 C-22.97826172 40.93783203 -22.97826172 40.93783203 -24.1875 40.3125 C-29.64803779 36.93626843 -32.19428087 33.14470442 -34 27 C-34.45305793 23.27432146 -34.6122323 19.71206109 -34 16 C-33.34 15.34 -32.68 14.68 -32 14 C-31.5153125 14.32613281 -31.030625 14.65226562 -30.53125 14.98828125 C-22.67497898 20.10996563 -16.46155508 22.59134719 -7 22 C-6.74605469 20.91460937 -6.49210937 19.82921875 -6.23046875 18.7109375 C-5.88319618 17.26553276 -5.53551836 15.82022535 -5.1875 14.375 C-5.02185547 13.66214844 -4.85621094 12.94929688 -4.68554688 12.21484375 C-3.61290285 7.80283625 -2.20707645 4.00941682 0 0 Z " fill="#C6A492" transform="translate(210,72)"/>
<path d="M0 0 C3.97730642 3.57957578 5.79052033 6.56839599 6.25447559 11.95390892 C6.25652846 13.05373415 6.25858133 14.15355938 6.26069641 15.28671265 C6.26778122 16.55400711 6.27486603 17.82130157 6.28216553 19.1269989 C6.27987189 20.52395666 6.27736222 21.92091407 6.2746582 23.31787109 C6.27900733 24.79491941 6.28419115 26.27196546 6.29014587 27.74900818 C6.3035264 31.75527815 6.30411554 35.76145372 6.30158257 39.76774168 C6.30051209 43.11507761 6.30539828 46.46239451 6.310188 49.80972636 C6.32128018 57.7087774 6.32172239 65.60778088 6.31567383 73.50683594 C6.30963517 81.64854608 6.32194292 89.79008336 6.3432439 97.93176401 C6.36087352 104.92810585 6.36685906 111.92439275 6.36360615 118.92075598 C6.36179512 123.09659566 6.36441138 127.27231205 6.37832069 131.44813156 C6.3909164 135.37654374 6.3889386 139.30468701 6.37590981 143.23309517 C6.37354815 144.67178629 6.37626398 146.11049643 6.38453293 147.54916573 C6.46690741 162.99972221 6.46690741 162.99972221 0.5625 169.8125 C-3.25192324 173.06871496 -5.86765922 174.24860604 -10.8891449 174.26069641 C-11.87187378 174.26778122 -12.85460266 174.27486603 -13.86711121 174.28216553 C-15.47481133 174.2784494 -15.47481133 174.2784494 -17.11499023 174.2746582 C-18.24871063 174.27976913 -19.38243103 174.28488007 -20.55050659 174.29014587 C-24.30325581 174.30406156 -28.05582178 174.30308362 -31.80859375 174.30078125 C-34.41406828 174.30466699 -37.01954218 174.30900141 -39.62501526 174.31376648 C-45.08832426 174.32197801 -50.55158155 174.32107234 -56.01489258 174.31567383 C-62.32585718 174.30963352 -68.63659887 174.32194725 -74.94752544 174.3432439 C-81.02373297 174.36299294 -87.09983636 174.36603261 -93.17607307 174.36250877 C-95.75928331 174.36302274 -98.34249704 174.36827445 -100.92568779 174.37832069 C-104.53583902 174.39063763 -108.14547248 174.38392145 -111.75561523 174.37231445 C-112.82539108 174.37995819 -113.89516693 174.38760193 -114.99736023 174.39547729 C-124.11113159 174.33061308 -124.11113159 174.33061308 -128 171 C-128 170.67 -128 170.34 -128 170 C-127.43623185 169.99853344 -126.8724637 169.99706688 -126.29161167 169.99555588 C-112.54375941 169.95842748 -98.79615554 169.8990828 -85.04850101 169.81609726 C-78.40006707 169.77663079 -71.75181801 169.74443807 -65.10327148 169.72900391 C-58.68403837 169.71383221 -52.26516898 169.67937644 -45.84609795 169.63169098 C-43.40020348 169.61688268 -40.95425709 169.60895931 -38.50831795 169.60811615 C-35.07554722 169.60574322 -31.64377895 169.57863494 -28.21118164 169.54589844 C-27.20560715 169.5509288 -26.20003265 169.55595917 -25.16398621 169.56114197 C-17.82761824 169.4532852 -11.59841692 167.97260528 -5.84375 163.21875 C-5.4003125 162.6515625 -4.956875 162.084375 -4.5 161.5 C-4.0359375 160.9328125 -3.571875 160.365625 -3.09375 159.78125 C-0.81351896 156.06773087 -0.87747149 152.34766964 -0.88647461 148.07478333 C-0.8865451 146.86223877 -0.8866156 145.64969421 -0.88668823 144.40040588 C-0.89182208 143.05966154 -0.89704353 141.71891753 -0.90234375 140.37817383 C-0.90426339 138.96363375 -0.90572697 137.549093 -0.9067688 136.134552 C-0.90992914 133.08927464 -0.91619709 130.04402502 -0.92483521 126.99875832 C-0.93836795 122.17785984 -0.94425445 117.35697057 -0.94897461 112.53605652 C-0.96101892 101.42571186 -0.98303213 90.31539112 -1.00520325 79.20506287 C-1.02540825 69.03467566 -1.04347969 58.86429671 -1.05341816 48.69389361 C-1.05838394 43.90778354 -1.06821975 39.12171628 -1.08184814 34.33562338 C-1.0893439 31.34808469 -1.09263071 28.36055176 -1.0948143 25.37300491 C-1.09755863 23.34107475 -1.10534228 21.30915332 -1.11331177 19.27723694 C-1.11368619 12.76219781 -0.88383283 6.45691109 0 0 Z " fill="#999999" transform="translate(168,208)"/>
<path d="M0 0 C0.09945752 5.12282759 0.17174409 10.24508354 0.21972656 15.36865234 C0.23974522 17.10866089 0.26696886 18.84860299 0.30175781 20.58837891 C0.35070952 23.10075346 0.37306587 25.61223275 0.390625 28.125 C0.41127014 28.89303955 0.43191528 29.6610791 0.45318604 30.45239258 C0.45571306 36.6432713 -1.17527048 41.85860126 -5.37689209 46.53125 C-10.22214394 50.87727016 -15.42704255 52.55679388 -21.9140625 52.3828125 C-27.0578848 51.43881515 -30.90722124 48.17905077 -34.375 44.4375 C-36.89882068 40.65176898 -38.25755198 38.0588463 -38.1953125 33.453125 C-38.18886719 32.60878906 -38.18242187 31.76445312 -38.17578125 30.89453125 C-38.15902344 30.02183594 -38.14226562 29.14914062 -38.125 28.25 C-38.11597656 27.36183594 -38.10695313 26.47367187 -38.09765625 25.55859375 C-38.07414577 23.37211942 -38.04128499 21.18619906 -38 19 C-37.27296875 18.84144531 -36.5459375 18.68289063 -35.796875 18.51953125 C-22.93991691 15.53605764 -12.19963034 11.28962572 -2.8125 1.78515625 C-1 0 -1 0 0 0 Z " fill="#853509" transform="translate(319,391)"/>
<path d="M0 0 C0.52964355 0.39759521 1.05928711 0.79519043 1.60498047 1.20483398 C3.05737101 2.29470758 4.51035494 3.38379078 5.96386719 4.47216797 C7.39975331 5.54959906 8.83061644 6.63374022 10.2578125 7.72265625 C18.13633137 13.37607042 27.42618733 16.64891566 37 18 C37.08156437 20.85475306 37.14076372 23.70713565 37.1875 26.5625 C37.21263672 27.36236328 37.23777344 28.16222656 37.26367188 28.98632812 C37.34004725 35.22365011 36.57087771 40.05929766 32.31640625 44.92578125 C31.44822266 45.61220703 31.44822266 45.61220703 30.5625 46.3125 C29.98628906 46.78300781 29.41007812 47.25351562 28.81640625 47.73828125 C23.90034753 51.15309193 19.90334898 51.76704699 14 51 C7.78201402 49.14570775 4.05787874 45.65641948 1 40 C-0.27385127 36.1784462 -0.12353188 32.5931553 -0.09765625 28.61328125 C-0.0962413 27.79627243 -0.09482635 26.97926361 -0.09336853 26.13749695 C-0.08777294 23.52912732 -0.07522129 20.92084366 -0.0625 18.3125 C-0.05748443 16.54362103 -0.05292162 14.77474072 -0.04882812 13.00585938 C-0.03780496 8.67053981 -0.02054338 4.33528448 0 0 Z " fill="#873609" transform="translate(216,392)"/>
<path d="M0 0 C2.04564528 3.53744605 4.09027627 7.07547628 6.1340332 10.61401367 C6.82712481 11.81371268 7.520477 13.01326118 8.21411133 14.21264648 C9.87497606 17.08468334 11.5318649 19.9588325 13.18310547 22.83642578 C14.30953096 24.79775627 15.44268955 26.75525644 16.58642578 28.70654297 C17.03872559 29.4904541 17.49102539 30.27436523 17.95703125 31.08203125 C18.34479736 31.74565674 18.73256348 32.40928223 19.13208008 33.09301758 C20.72368287 36.59006664 20.50609471 39.20428968 20 43 C18.58288585 46.54278538 17.40127078 47.74140328 14.1875 49.8125 C10.63539934 51.13583162 8.7388328 51.68672439 5 51 C-0.77748841 47.61054014 -4.93103933 42.32182428 -7 36 C-7.63912212 32.08214448 -7.94915309 28.1365901 -8.25854492 24.18115234 C-8.76210535 18.13246788 -10.00813431 12.8437965 -12.1953125 7.15234375 C-13 5 -13 5 -13 3 C-11.39743892 2.49487756 -9.79288208 1.99608373 -8.1875 1.5 C-7.29417969 1.2215625 -6.40085937 0.943125 -5.48046875 0.65625 C-3 0 -3 0 0 0 Z " fill="#853408" transform="translate(342,310)"/>
<path d="M0 0 C3.36795268 1.86673346 5.39805583 3.54402863 6.625 7.3125 C6.50942252 13.43810645 4.40750813 19.35841631 0.16796875 23.859375 C-4.75407983 28.09607504 -8.58997051 29.79368499 -15 29.625 C-20.53969857 28.89609229 -24.29346544 26.39403456 -28.1875 22.5 C-31.34365658 17.90102899 -33.375 14.35112367 -33.375 8.6875 C-32.16125995 4.59112733 -30.6990027 2.95659306 -27.375 0.3125 C-19.91848078 -3.53733329 -7.74374938 -3.15628069 0 0 Z " fill="#B91E2C" transform="translate(280.375,281.6875)"/>
<path d="M0 0 C2.84155273 -0.38818359 2.84155273 -0.38818359 6.43359375 -0.3984375 C8.3662207 -0.40423828 8.3662207 -0.40423828 10.33789062 -0.41015625 C11.01053955 -0.40387207 11.68318848 -0.39758789 12.3762207 -0.39111328 C14.42662435 -0.37508502 16.47504916 -0.39094123 18.52539062 -0.41015625 C19.81509766 -0.40628906 21.10480469 -0.40242188 22.43359375 -0.3984375 C24.21334595 -0.39336182 24.21334595 -0.39336182 26.02905273 -0.38818359 C29 0 29 0 30.88549805 1.21240234 C32.36330536 3.58272111 32.38780668 5.21371285 32.3984375 8 C32.40423828 9.4540625 32.40423828 9.4540625 32.41015625 10.9375 C32.39855469 11.948125 32.38695312 12.95875 32.375 14 C32.38660156 15.010625 32.39820313 16.02125 32.41015625 17.0625 C32.40628906 18.031875 32.40242188 19.00125 32.3984375 20 C32.39505371 20.886875 32.39166992 21.77375 32.38818359 22.6875 C32 25 32 25 30.88549805 26.78759766 C28.07507286 28.59474144 25.75118057 28.38897606 22.43359375 28.3984375 C20.4990332 28.40423828 20.4990332 28.40423828 18.52539062 28.41015625 C17.85483643 28.40387207 17.18428223 28.39758789 16.4934082 28.39111328 C14.44089523 28.37502661 12.39034315 28.39098134 10.33789062 28.41015625 C9.04947266 28.40628906 7.76105469 28.40242188 6.43359375 28.3984375 C5.24822021 28.39505371 4.06284668 28.39166992 2.84155273 28.38818359 C1.90384033 28.26008301 0.96612793 28.13198242 0 28 C-2.17237362 24.74143956 -2.25602651 23.77357656 -2.265625 20 C-2.26820312 19.030625 -2.27078125 18.06125 -2.2734375 17.0625 C-2.26570313 16.051875 -2.25796875 15.04125 -2.25 14 C-2.25773437 12.989375 -2.26546875 11.97875 -2.2734375 10.9375 C-2.27085938 9.968125 -2.26828125 8.99875 -2.265625 8 C-2.26336914 7.113125 -2.26111328 6.22625 -2.25878906 5.3125 C-2 3 -2 3 0 0 Z " fill="#0A0A0A" transform="translate(130,273)"/>
<path d="M0 0 C1.29292969 -0.00257813 2.58585937 -0.00515625 3.91796875 -0.0078125 C4.59263184 -0.00362305 5.26729492 0.00056641 5.96240234 0.00488281 C8.02341157 0.0155843 10.08354919 0.00498557 12.14453125 -0.0078125 C13.43746094 -0.00523437 14.73039062 -0.00265625 16.0625 0 C17.25423828 0.00225586 18.44597656 0.00451172 19.67382812 0.00683594 C22.53125 0.265625 22.53125 0.265625 24.53125 2.265625 C24.79003906 4.6640625 24.79003906 4.6640625 24.796875 7.640625 C24.80074219 9.24164063 24.80074219 9.24164063 24.8046875 10.875 C24.79695313 11.99390625 24.78921875 13.1128125 24.78125 14.265625 C24.79285156 15.94398438 24.79285156 15.94398438 24.8046875 17.65625 C24.80210938 18.72359375 24.79953125 19.7909375 24.796875 20.890625 C24.79461914 21.87289063 24.79236328 22.85515625 24.79003906 23.8671875 C24.53125 26.265625 24.53125 26.265625 22.53125 28.265625 C19.67382813 28.52441406 19.67382813 28.52441406 16.0625 28.53125 C14.76957031 28.53382813 13.47664063 28.53640625 12.14453125 28.5390625 C11.46986816 28.53487305 10.79520508 28.53068359 10.10009766 28.52636719 C8.03908843 28.5156657 5.97895081 28.52626443 3.91796875 28.5390625 C2.62503906 28.53648437 1.33210938 28.53390625 0 28.53125 C-1.19173828 28.52899414 -2.38347656 28.52673828 -3.61132812 28.52441406 C-6.46875 28.265625 -6.46875 28.265625 -8.46875 26.265625 C-8.72753906 23.8671875 -8.72753906 23.8671875 -8.734375 20.890625 C-8.73695312 19.82328125 -8.73953125 18.7559375 -8.7421875 17.65625 C-8.73058594 15.97789062 -8.73058594 15.97789062 -8.71875 14.265625 C-8.72648437 13.14671875 -8.73421875 12.0278125 -8.7421875 10.875 C-8.73960938 9.80765625 -8.73703125 8.7403125 -8.734375 7.640625 C-8.73211914 6.65835937 -8.72986328 5.67609375 -8.72753906 4.6640625 C-8.1498665 -0.68976318 -4.47987329 0.00848002 0 0 Z " fill="#060606" transform="translate(95.46875,272.734375)"/>
<path d="M0 0 C1.19173828 0.00410889 2.38347656 0.00821777 3.61132812 0.01245117 C4.90425781 0.01438477 6.1971875 0.01631836 7.52929688 0.01831055 C8.5412915 0.02761597 8.5412915 0.02761597 9.57373047 0.03710938 C11.63456595 0.05534901 13.69495166 0.05761915 15.75585938 0.05737305 C25.86216911 0.10271541 25.86216911 0.10271541 28.14257812 1.24291992 C28.2004252 5.36786143 28.23612219 9.49269936 28.26757812 13.61791992 C28.28433594 14.79354492 28.30109375 15.96916992 28.31835938 17.18041992 C28.32802734 18.86264648 28.32802734 18.86264648 28.33789062 20.57885742 C28.35360107 22.13419189 28.35360107 22.13419189 28.36962891 23.72094727 C28.14257812 26.24291992 28.14257812 26.24291992 26.14257812 28.24291992 C21.51402002 28.70524149 16.85403016 28.56689882 12.20507812 28.55541992 C10.25311523 28.57958984 10.25311523 28.57958984 8.26171875 28.60424805 C6.39483398 28.60521484 6.39483398 28.60521484 4.49023438 28.60620117 C3.34562744 28.60918213 2.20102051 28.61216309 1.02172852 28.61523438 C-1.85742188 28.24291992 -1.85742188 28.24291992 -3.73144531 27.04858398 C-5.25931702 24.59842371 -5.22987938 22.86762878 -5.22070312 19.98901367 C-5.21973633 18.46050781 -5.21973633 18.46050781 -5.21875 16.90112305 C-5.20263672 15.83829102 -5.18652344 14.77545898 -5.16992188 13.68041992 C-5.17314453 12.6137207 -5.17636719 11.54702148 -5.1796875 10.44799805 C-5.10992852 0.43441378 -5.10992852 0.43441378 0 0 Z " fill="#070707" transform="translate(91.857421875,305.757080078125)"/>
<path d="M0 0 C1.05368774 0.00012085 1.05368774 0.00012085 2.12866211 0.00024414 C4.27087312 -0.00194055 6.41256783 -0.02008824 8.5546875 -0.0390625 C9.91080552 -0.04199671 11.266926 -0.04398132 12.62304688 -0.04492188 C13.86304443 -0.04903076 15.10304199 -0.05313965 16.38061523 -0.05737305 C19.34570312 0.18554688 19.34570312 0.18554688 21.34570312 2.18554688 C21.80053079 5.97901178 21.66973663 9.80545816 21.65820312 13.62304688 C21.67431641 14.68587891 21.69042969 15.74871094 21.70703125 16.84375 C21.70767578 17.86275391 21.70832031 18.88175781 21.70898438 19.93164062 C21.71196533 20.8667749 21.71494629 21.80190918 21.71801758 22.76538086 C21.34570312 25.18554688 21.34570312 25.18554688 20.21972656 26.99121094 C17.46333991 28.74788674 15.24577518 28.55728635 11.99804688 28.54882812 C10.75345703 28.54818359 9.50886719 28.54753906 8.2265625 28.546875 C6.92525391 28.53076172 5.62394531 28.51464844 4.28320312 28.49804688 C2.97802734 28.50126953 1.67285156 28.50449219 0.328125 28.5078125 C-9.38743361 28.45241014 -9.38743361 28.45241014 -11.65429688 26.18554688 C-11.8972168 23.67944336 -11.8972168 23.67944336 -11.88476562 20.55664062 C-11.88283203 19.43966797 -11.88089844 18.32269531 -11.87890625 17.171875 C-11.86666016 16.00076172 -11.85441406 14.82964844 -11.84179688 13.62304688 C-11.84115234 12.44806641 -11.84050781 11.27308594 -11.83984375 10.0625 C-11.78370354 -0.73513365 -10.42230947 0.03780802 0 0 Z " fill="#060606" transform="translate(57.654296875,305.814453125)"/>
<path d="M0 0 C1.29292969 -0.00257813 2.58585937 -0.00515625 3.91796875 -0.0078125 C4.59263184 -0.00362305 5.26729492 0.00056641 5.96240234 0.00488281 C8.02341157 0.0155843 10.08354919 0.00498557 12.14453125 -0.0078125 C13.43746094 -0.00523437 14.73039062 -0.00265625 16.0625 0 C17.25423828 0.00225586 18.44597656 0.00451172 19.67382812 0.00683594 C22.53125 0.265625 22.53125 0.265625 24.53125 2.265625 C24.98607767 6.05908991 24.8552835 9.88553629 24.84375 13.703125 C24.85986328 14.76595703 24.87597656 15.82878906 24.89257812 16.92382812 C24.89322266 17.94283203 24.89386719 18.96183594 24.89453125 20.01171875 C24.89751221 20.94685303 24.90049316 21.8819873 24.90356445 22.84545898 C24.53125 25.265625 24.53125 25.265625 23.40527344 27.07128906 C20.64888679 28.82796487 18.43132205 28.63736447 15.18359375 28.62890625 C13.93900391 28.62826172 12.69441406 28.62761719 11.41210938 28.62695312 C10.11080078 28.61083984 8.80949219 28.59472656 7.46875 28.578125 C6.16357422 28.58134766 4.85839844 28.58457031 3.51367188 28.58789062 C-6.20188673 28.53248827 -6.20188673 28.53248827 -8.46875 26.265625 C-8.72753906 23.8671875 -8.72753906 23.8671875 -8.734375 20.890625 C-8.73695312 19.82328125 -8.73953125 18.7559375 -8.7421875 17.65625 C-8.73058594 15.97789062 -8.73058594 15.97789062 -8.71875 14.265625 C-8.72648437 13.14671875 -8.73421875 12.0278125 -8.7421875 10.875 C-8.73960938 9.80765625 -8.73703125 8.7403125 -8.734375 7.640625 C-8.73211914 6.65835937 -8.72986328 5.67609375 -8.72753906 4.6640625 C-8.1498665 -0.68976318 -4.47987329 0.00848002 0 0 Z " fill="#060606" transform="translate(54.46875,272.734375)"/>
<path d="M0 0 C1.23999756 0.00410889 2.47999512 0.00821777 3.75756836 0.01245117 C4.41824814 0.01290939 5.07892792 0.01336761 5.7596283 0.01383972 C7.1558512 0.01686071 8.55207078 0.02474251 9.94824219 0.03710938 C12.09248709 0.05537796 14.2363006 0.05761898 16.38061523 0.05737305 C26.88747999 0.0954878 26.88747999 0.0954878 28.03491211 1.24291992 C28.13450832 3.08451015 28.16571621 4.92988959 28.16772461 6.77416992 C28.1696582 8.45446289 28.1696582 8.45446289 28.17163086 10.16870117 C28.16776367 11.34819336 28.16389648 12.52768555 28.15991211 13.74291992 C28.16571289 15.5121582 28.16571289 15.5121582 28.17163086 17.31713867 C28.1703418 18.43733398 28.16905273 19.5575293 28.16772461 20.71166992 C28.16659668 21.74743164 28.16546875 22.78319336 28.16430664 23.8503418 C28.03491211 26.24291992 28.03491211 26.24291992 27.03491211 27.24291992 C22.77742785 27.46101748 18.51445487 27.42871153 14.25195312 27.42822266 C12.10974211 27.43040735 9.9680474 27.44855504 7.82592773 27.4675293 C6.46980971 27.47046351 5.11368923 27.47244812 3.75756836 27.47338867 C2.5175708 27.47749756 1.27757324 27.48160645 0 27.48583984 C-2.96508789 27.24291992 -2.96508789 27.24291992 -4.96508789 25.24291992 C-5.22387695 22.9362793 -5.22387695 22.9362793 -5.23071289 20.08666992 C-5.23329102 19.06444336 -5.23586914 18.0422168 -5.23852539 16.98901367 C-5.22692383 15.38219727 -5.22692383 15.38219727 -5.21508789 13.74291992 C-5.22282227 12.67170898 -5.23055664 11.60049805 -5.23852539 10.49682617 C-5.23594727 9.47459961 -5.23336914 8.45237305 -5.23071289 7.39916992 C-5.22845703 6.45879883 -5.22620117 5.51842773 -5.22387695 4.54956055 C-4.80883681 0.85022162 -3.60474789 0.29532517 0 0 Z " fill="#040404" transform="translate(91.965087890625,338.757080078125)"/>
<path d="M0 0 C1.05368774 0.00012085 1.05368774 0.00012085 2.12866211 0.00024414 C4.27087312 -0.00194055 6.41256783 -0.02008824 8.5546875 -0.0390625 C9.91080552 -0.04199671 11.266926 -0.04398132 12.62304688 -0.04492188 C13.86304443 -0.04903076 15.10304199 -0.05313965 16.38061523 -0.05737305 C19.34570312 0.18554688 19.34570312 0.18554688 21.34570312 2.18554688 C21.60449219 4.4921875 21.60449219 4.4921875 21.61132812 7.34179688 C21.61519531 8.87513672 21.61519531 8.87513672 21.61914062 10.43945312 C21.61140625 11.51066406 21.60367188 12.581875 21.59570312 13.68554688 C21.60730469 15.29236328 21.60730469 15.29236328 21.61914062 16.93164062 C21.6165625 17.95386719 21.61398438 18.97609375 21.61132812 20.02929688 C21.60907227 20.96966797 21.60681641 21.91003906 21.60449219 22.87890625 C21.34570312 25.18554688 21.34570312 25.18554688 19.34570312 27.18554688 C16.38061523 27.4284668 16.38061523 27.4284668 12.62304688 27.41601562 C11.9623671 27.4155574 11.30168732 27.41509918 10.62098694 27.41462708 C9.22476403 27.41160609 7.82854445 27.40372429 6.43237305 27.39135742 C4.28812814 27.37308884 2.14431463 27.37084781 0 27.37109375 C-10.50686476 27.33297899 -10.50686476 27.33297899 -11.65429688 26.18554688 C-11.75389308 24.34395665 -11.78510098 22.4985772 -11.78710938 20.65429688 C-11.78839844 19.53410156 -11.7896875 18.41390625 -11.79101562 17.25976562 C-11.78714844 16.08027344 -11.78328125 14.90078125 -11.77929688 13.68554688 C-11.78316406 12.50605469 -11.78703125 11.3265625 -11.79101562 10.11132812 C-11.78972656 8.99113281 -11.7884375 7.8709375 -11.78710938 6.71679688 C-11.78598145 5.68103516 -11.78485352 4.64527344 -11.78369141 3.578125 C-11.47531753 -2.12388246 -4.44197798 0.01611374 0 0 Z " fill="#030303" transform="translate(57.654296875,338.814453125)"/>
<path d="M0 0 C5.94 0 11.88 0 18 0 C18 14.85 18 29.7 18 45 C12.06 45 6.12 45 0 45 C0 30.15 0 15.3 0 0 Z " fill="#C80000" transform="translate(136,314)"/>
<path d="M0 0 C2.58595537 2.29698041 3.80265715 4.47535742 5.1875 7.625 C10.10203936 17.64366036 17.35186918 23.66006632 27 29 C28.05960938 29.60134766 28.05960938 29.60134766 29.140625 30.21484375 C42.87869568 37.16253217 63.13244537 38.56693299 78 34.8125 C79.6807624 34.2487333 81.34803852 33.64328718 83 33 C84.48886719 32.45472656 84.48886719 32.45472656 86.0078125 31.8984375 C95.67489571 28.1430543 103.30807203 22.87363776 111 16 C105.22197297 28.17705696 95.38615955 36.0738474 83 41 C74.58592451 43.95415817 66.62680971 44.5453017 57.75 44.5 C55.82945801 44.49250732 55.82945801 44.49250732 53.87011719 44.48486328 C40.37526157 44.23597571 29.75752051 41.51819991 19 33 C18.38898438 32.56171875 17.77796875 32.1234375 17.1484375 31.671875 C8.15051135 24.77478623 2.51373123 13.3163676 0.25 2.375 C0.1675 1.59125 0.085 0.8075 0 0 Z " fill="#5D2405" transform="translate(209,359)"/>
<path d="M0 0 C6.43985125 -0.34499203 12.43362973 -0.06075828 17.54296875 4.32421875 C23.38736468 10.85417432 23.38465356 17.97055317 23.24609375 26.30859375 C22.64394557 35.34081647 18.84135515 43.12224368 12.44140625 49.5703125 C3.99806775 56.33308243 -6.67508188 56.44319998 -17 56 C-17 52 -17 52 -16 51 C-13.83655434 50.58692452 -11.66908306 50.19487041 -9.5 49.8125 C-2.27907992 48.28301795 4.0941842 46.28567246 8.3984375 39.9375 C12.55998784 31.90954473 13.63889112 22.41986011 11.38671875 13.59765625 C8.98374742 8.75995627 4.78852386 6.87124355 0 5 C0 3.35 0 1.7 0 0 Z " fill="#F2B594" transform="translate(391,200)"/>
<path d="M0 0 C1.19367188 0.0721875 2.38734375 0.144375 3.6171875 0.21875 C27.6853551 1.55191678 51.9469977 1.654752 76 0 C79 5.75 79 5.75 79 8 C66.67416616 9.81304777 54.55915946 10.3138915 42.10791016 10.26074219 C39.13553357 10.25003793 36.16376447 10.26069532 33.19140625 10.2734375 C21.00272688 10.28100482 9.08931477 9.55022906 -3 8 C-1.125 2.25 -1.125 2.25 0 0 Z " fill="#AE836A" transform="translate(229,319)"/>
<path d="M0 0 C2 0.66666667 4 1.33333333 6 2 C6.68400879 2.22413574 7.36801758 2.44827148 8.07275391 2.67919922 C10.32347427 3.42010094 12.56803945 4.17786587 14.8125 4.9375 C15.58787109 5.18951172 16.36324219 5.44152344 17.16210938 5.70117188 C19.14093049 6.37809143 21.07576463 7.18068851 23 8 C24.28328584 11.84985753 23.41866234 13.38234836 22.125 17.1875 C20.49943717 22.19871784 19.41110222 26.75844665 19 32 C17.40835291 31.15112155 15.82662747 30.28066064 14.28515625 29.34375 C11.94391826 27.91846724 11.94391826 27.91846724 9.12109375 26.65625 C5.59623684 24.70769807 3.46190596 23.22039333 1 20 C-0.64289823 13.51021115 -0.32162867 6.64130004 0 0 Z " fill="#853509" transform="translate(181,305)"/>
<path d="M0 0 C-0.22241262 5.44910917 -1.44142804 8.49731021 -5.19921875 12.48828125 C-9.65967113 16.2327391 -15.21131874 17.65661871 -20.984375 17.41796875 C-26.06027854 16.36540736 -29.85511222 13.14488778 -33.4375 9.5625 C-35.208216 6.65852576 -35.52719155 4.33720138 -36 1 C-34.89543457 1.00785522 -34.89543457 1.00785522 -33.76855469 1.01586914 C-30.42904515 1.03666867 -27.08954926 1.04966968 -23.75 1.0625 C-22.59113281 1.07087891 -21.43226563 1.07925781 -20.23828125 1.08789062 C-19.12324219 1.09111328 -18.00820313 1.09433594 -16.859375 1.09765625 C-15.83295898 1.10289307 -14.80654297 1.10812988 -13.74902344 1.11352539 C-9.05493453 0.91967536 -4.79450701 -0.09220206 0 0 Z " fill="#F6B896" transform="translate(318,426)"/>
<path d="M0 0 C0.7125293 0.0714624 1.42505859 0.1429248 2.15917969 0.21655273 C9.87751917 0.93271957 17.50205896 1.12195882 25.25 1.0625 C26.38824219 1.05798828 27.52648437 1.05347656 28.69921875 1.04882812 C31.46620409 1.03720214 34.23307158 1.02086431 37 1 C35.88740169 5.78876075 34.98841548 8.69989922 31.125 11.8125 C30.44695312 12.37582031 29.76890625 12.93914062 29.0703125 13.51953125 C24.06646539 17.097754 20.07345817 17.78914999 14 17 C8.53606961 15.3705779 4.9726412 12.59276971 1.8984375 7.81640625 C0.63538265 5.26283884 0.20664761 2.82418407 0 0 Z " fill="#F6B896" transform="translate(216,426)"/>
<path d="M0 0 C0.33 0 0.66 0 1 0 C1.53863341 15.38627045 1.68750091 28.65848074 -7 42 C-10.3472558 38.99901204 -12.42369047 36.23114664 -14 32 C-13.75485176 28.38406352 -13.14329929 25.42989787 -12 22 C-12 21.11828125 -12 20.2365625 -12 19.328125 C-12 11.12133072 -12 11.12133072 -9.00390625 7.76171875 C-6.5625 5.9375 -6.5625 5.9375 -4.12890625 4.40234375 C-1.73384672 3.02295516 -1.73384672 3.02295516 0 0 Z " fill="#823307" transform="translate(372,290)"/>
<path d="M0 0 C3.18495447 4.83641234 3.53401636 8.3928282 3 14 C1.58288585 17.54278538 0.40127078 18.74140328 -2.8125 20.8125 C-6.36460066 22.13583162 -8.2611672 22.68672439 -12 22 C-17.0290887 18.87293843 -19.51708818 15.35588833 -22 10 C-18.90554098 8.12925279 -15.79803961 6.28136499 -12.6875 4.4375 C-11.80642578 3.90447266 -10.92535156 3.37144531 -10.01757812 2.82226562 C-9.17001953 2.32275391 -8.32246094 1.82324219 -7.44921875 1.30859375 C-6.66893311 0.84251709 -5.88864746 0.37644043 -5.0847168 -0.10375977 C-3 -1 -3 -1 0 0 Z " fill="#F6B895" transform="translate(359,339)"/>
<path d="M0 0 C2.6875 1.59375 2.6875 1.59375 4.6875 3.59375 C4.53918793 7.07908376 4.36226106 8.94148098 1.8125 11.40625 C-3.82229877 14.55510814 -10.0391082 14.14026634 -16.3125 13.59375 C-19.27122683 12.65404547 -20.1016514 11.92742352 -22.3125 9.59375 C-23.5625 6.65625 -23.5625 6.65625 -23.3125 3.59375 C-18.09846959 -3.67429239 -7.69821874 -3.26811173 0 0 Z " fill="#FE5453" transform="translate(321.3125,236.40625)"/>
<path d="M0 0 C1.18464844 -0.00773438 2.36929688 -0.01546875 3.58984375 -0.0234375 C7.5327674 0.42895644 11.17430676 1.48680676 14.0625 4.375 C14.52497465 9.69345842 14.52497465 9.69345842 12.875 12.125 C7.11054635 16.10048528 0.82667382 16.15196591 -5.9375 15.375 C-8.78956576 14.19021328 -10.74595209 12.56654791 -12.9375 10.375 C-12.8125 7 -12.8125 7 -11.9375 3.375 C-8.06159155 0.26285251 -4.88301767 -0.03181119 0 0 Z " fill="#FE5353" transform="translate(224.9375,234.625)"/>
<path d="M0 0 C1.61455078 0.38091797 1.61455078 0.38091797 3.26171875 0.76953125 C5.52027477 1.30233215 7.77909066 1.83393773 10.03857422 2.36279297 C13.52889095 3.17985908 17.01587822 4.00392077 20.49609375 4.86328125 C28.62199449 6.84149679 36.70198042 8.02443753 45 9 C45.33 8.34 45.66 7.68 46 7 C46.48919922 7.79664063 46.48919922 7.79664063 46.98828125 8.609375 C49.19858124 12.18236731 51.38815164 15.70082313 54 19 C47.6808194 19.24135759 42.13443072 18.42575145 36 16.9375 C35.08444336 16.71634521 34.16888672 16.49519043 33.22558594 16.26733398 C21.49873229 13.28660551 9.43295626 8.80839157 0 1 C0 0.67 0 0.34 0 0 Z " fill="#AB8068" transform="translate(195,293)"/>
<path d="M0 0 C-13.90602925 11.1248234 -35.30490397 17.25506445 -53 17 C-52.04454634 15.53977837 -51.08553322 14.08188532 -50.125 12.625 C-49.59132813 11.81289063 -49.05765625 11.00078125 -48.5078125 10.1640625 C-47 8 -47 8 -45 6 C-42.91963972 6.01282853 -40.8391733 6.03136326 -38.75927734 6.07714844 C-33.35517505 5.92605161 -28.09810619 4.69110527 -22.8125 3.625 C-21.66330078 3.40328125 -20.51410156 3.1815625 -19.33007812 2.953125 C-12.97936173 1.71061604 -12.97936173 1.71061604 -6.77612305 -0.10400391 C-3.91887084 -1.02618451 -2.75018911 -1.05776504 0 0 Z " fill="#AE836A" transform="translate(338,295)"/>
<path d="M0 0 C2.4375 0.1875 2.4375 0.1875 3.4375 1.1875 C3.47830783 3.18708364 3.48004356 5.18795254 3.4375 7.1875 C4.860625 7.125625 4.860625 7.125625 6.3125 7.0625 C9.4375 7.1875 9.4375 7.1875 11.4375 9.1875 C10.88194444 13.74305556 10.88194444 13.74305556 9.4375 15.1875 C7.43791636 15.22830783 5.43704746 15.23004356 3.4375 15.1875 C3.47875 16.13625 3.52 17.085 3.5625 18.0625 C3.4375 21.1875 3.4375 21.1875 1.4375 23.1875 C-3.11805556 22.63194444 -3.11805556 22.63194444 -4.5625 21.1875 C-4.60330783 19.18791636 -4.60504356 17.18704746 -4.5625 15.1875 C-5.51125 15.22875 -6.46 15.27 -7.4375 15.3125 C-10.5625 15.1875 -10.5625 15.1875 -12.5625 13.1875 C-12.00694444 8.63194444 -12.00694444 8.63194444 -10.5625 7.1875 C-8.56291636 7.14669217 -6.56204746 7.14495644 -4.5625 7.1875 C-4.60375 6.40375 -4.645 5.62 -4.6875 4.8125 C-4.51426033 1.17446685 -3.63479979 0.26596096 0 0 Z " fill="#050805" transform="translate(122.5625,227.8125)"/>
<path d="M0 0 C1.59726213 4.90194239 0.01209972 8.42704609 -2 13 C-6.38271779 21.16959782 -11.24173973 26.01472427 -20.125 28.8125 C-26.40230853 30.36654857 -32.57338953 30.27586404 -39 30 C-39 26 -39 26 -38 25 C-35.79700504 24.53636701 -33.5873245 24.10434851 -31.375 23.6875 C-25.73498465 22.5194156 -21.76846306 21.14515649 -17 18 C-16.154375 17.690625 -15.30875 17.38125 -14.4375 17.0625 C-7.87495943 14.20190539 -4.23833932 9.16703662 -1 3 C-0.67 2.01 -0.34 1.02 0 0 Z " fill="#AA8068" transform="translate(413,226)"/>
<path d="M0 0 C4.875 2.625 4.875 2.625 6 6 C6.71059134 13.81650475 5.69914705 19.55108989 0.75 25.875 C-2.54614758 28.42202313 -4.89128321 28.75831078 -9 29 C-8.82041748 28.472854 -8.64083496 27.94570801 -8.45581055 27.40258789 C-6.4474754 21.45016507 -4.60172259 15.45900713 -2.8125 9.4375 C-2.53986328 8.52419922 -2.26722656 7.61089844 -1.98632812 6.66992188 C-1.32294069 4.44699205 -0.66085272 2.22368442 0 0 Z " fill="#F44E4E" transform="translate(390,213)"/>
<path d="M0 0 C2.1328125 0.4765625 2.1328125 0.4765625 4.7578125 2.4765625 C6.58178646 6.45614205 6.51017972 9.34446083 5.1328125 13.4765625 C2.79080094 16.35903826 1.33298087 16.45154145 -2.3671875 16.9140625 C-5.8671875 16.4765625 -5.8671875 16.4765625 -8.2421875 14.9140625 C-10.41945035 11.64816822 -10.8671875 9.39672384 -10.8671875 5.4765625 C-8.4327336 0.27568372 -5.36273239 -0.33627695 0 0 Z " fill="#F6F6F6" transform="translate(303.8671875,184.5234375)"/>
<path d="M0 0 C2.1328125 0.4765625 2.1328125 0.4765625 4.7578125 2.4765625 C6.58178646 6.45614205 6.51017972 9.34446083 5.1328125 13.4765625 C2.79080094 16.35903826 1.33298087 16.45154145 -2.3671875 16.9140625 C-5.8671875 16.4765625 -5.8671875 16.4765625 -8.2421875 14.9140625 C-10.41945035 11.64816822 -10.8671875 9.39672384 -10.8671875 5.4765625 C-8.4327336 0.27568372 -5.36273239 -0.33627695 0 0 Z " fill="#F6F6F6" transform="translate(217.8671875,184.5234375)"/>
<path d="M0 0 C5.94 0 11.88 0 18 0 C18 3.96 18 7.92 18 12 C12.06 12 6.12 12 0 12 C0 8.04 0 4.08 0 0 Z " fill="#595959" transform="translate(136,281)"/>
<path d="M0 0 C5.61 0 11.22 0 17 0 C17 3.96 17 7.92 17 12 C11.39 12 5.78 12 0 12 C0 8.04 0 4.08 0 0 Z " fill="#5D5D5D" transform="translate(54,314)"/>
<path d="M0 0 C5.61 0 11.22 0 17 0 C17 3.96 17 7.92 17 12 C11.39 12 5.78 12 0 12 C0 8.04 0 4.08 0 0 Z " fill="#5C5C5C" transform="translate(95,281)"/>
<path d="M0 0 C5.61 0 11.22 0 17 0 C17 3.96 17 7.92 17 12 C11.39 12 5.78 12 0 12 C0 8.04 0 4.08 0 0 Z " fill="#5D5D5D" transform="translate(54,281)"/>
<path d="M0 0 C5.61 0 11.22 0 17 0 C17 3.63 17 7.26 17 11 C11.39 11 5.78 11 0 11 C0 7.37 0 3.74 0 0 Z " fill="#5F5F5F" transform="translate(95,347)"/>
<path d="M0 0 C5.61 0 11.22 0 17 0 C17 3.63 17 7.26 17 11 C11.39 11 5.78 11 0 11 C0 7.37 0 3.74 0 0 Z " fill="#616161" transform="translate(54,347)"/>
<path d="M0 0 C5.61 0 11.22 0 17 0 C17 3.63 17 7.26 17 11 C11.39 11 5.78 11 0 11 C0 7.37 0 3.74 0 0 Z " fill="#5F5F5F" transform="translate(95,314)"/>
<path d="M0 0 C0.33 0 0.66 0 1 0 C0.87797659 5.8571236 -0.84130001 8.78352624 -4.84375 13.015625 C-10.78830854 18.48634192 -17.58331386 22.82142023 -25 26 C-25.66 25.67 -26.32 25.34 -27 25 C-26.52949219 24.57589844 -26.05898438 24.15179688 -25.57421875 23.71484375 C-22.42423968 20.74747216 -19.85719444 18.31337458 -18.375 14.1875 C-17 11 -17 11 -14.703125 9.984375 C-13.81109375 9.65953125 -12.9190625 9.3346875 -12 9 C-10.4314064 8.06457624 -8.88857532 7.08455344 -7.375 6.0625 C-6.24191406 5.30646484 -6.24191406 5.30646484 -5.0859375 4.53515625 C-3.19590325 3.14417599 -1.64126162 1.66612922 0 0 Z " fill="#5A2305" transform="translate(369,275)"/>
<path d="M0 0 C2.4375 0.1875 2.4375 0.1875 3.4375 1.1875 C3.53649523 2.73705559 3.56829524 4.29103673 3.5703125 5.84375 C3.57224609 7.25333984 3.57224609 7.25333984 3.57421875 8.69140625 C3.57035156 9.68011719 3.56648437 10.66882813 3.5625 11.6875 C3.56636719 12.67621094 3.57023438 13.66492188 3.57421875 14.68359375 C3.57292969 15.62332031 3.57164062 16.56304687 3.5703125 17.53125 C3.56918457 18.39943359 3.56805664 19.26761719 3.56689453 20.16210938 C3.4375 22.1875 3.4375 22.1875 2.4375 23.1875 C0 23.375 0 23.375 -2.5625 23.1875 C-4.97079792 20.77920208 -4.81852579 20.19466444 -4.828125 16.90625 C-4.83070313 16.06449219 -4.83328125 15.22273437 -4.8359375 14.35546875 C-4.82433594 13.03482422 -4.82433594 13.03482422 -4.8125 11.6875 C-4.82023438 10.80707031 -4.82796875 9.92664063 -4.8359375 9.01953125 C-4.83335937 8.17777344 -4.83078125 7.33601562 -4.828125 6.46875 C-4.82586914 5.69595703 -4.82361328 4.92316406 -4.82128906 4.12695312 C-4.38971298 0.89257541 -3.13498183 0.22938891 0 0 Z " fill="#070A07" transform="translate(142.5625,227.8125)"/>
<path d="M0 0 C2.4375 0.1875 2.4375 0.1875 3.4375 1.1875 C3.53649523 2.73705559 3.56829524 4.29103673 3.5703125 5.84375 C3.57224609 7.25333984 3.57224609 7.25333984 3.57421875 8.69140625 C3.57035156 9.68011719 3.56648438 10.66882813 3.5625 11.6875 C3.56636719 12.67621094 3.57023437 13.66492188 3.57421875 14.68359375 C3.57292969 15.62332031 3.57164063 16.56304687 3.5703125 17.53125 C3.56918457 18.39943359 3.56805664 19.26761719 3.56689453 20.16210938 C3.4375 22.1875 3.4375 22.1875 2.4375 23.1875 C0 23.375 0 23.375 -2.5625 23.1875 C-4.97079792 20.77920208 -4.81852579 20.19466444 -4.828125 16.90625 C-4.83070312 16.06449219 -4.83328125 15.22273437 -4.8359375 14.35546875 C-4.82433594 13.03482422 -4.82433594 13.03482422 -4.8125 11.6875 C-4.82023437 10.80707031 -4.82796875 9.92664063 -4.8359375 9.01953125 C-4.83335938 8.17777344 -4.83078125 7.33601562 -4.828125 6.46875 C-4.82586914 5.69595703 -4.82361328 4.92316406 -4.82128906 4.12695312 C-4.38971298 0.89257541 -3.13498183 0.22938891 0 0 Z " fill="#070A07" transform="translate(102.5625,227.8125)"/>
<path d="M0 0 C1.25664978 2.90600261 2 4.79604584 2 8 C-3.45461169 9.38529821 -8.36718401 10.2396943 -14 10 C-14.45375 9.05125 -14.9075 8.1025 -15.375 7.125 C-16.80238254 3.99686321 -16.80238254 3.99686321 -19 2 C-16.77149723 1.66225668 -14.54216533 1.3299813 -12.3125 1 C-10.45044922 0.7215625 -10.45044922 0.7215625 -8.55078125 0.4375 C-5.64113629 0.07899589 -2.92299978 -0.08942256 0 0 Z " fill="#5C2406" transform="translate(322,316)"/>
<path d="M0 0 C1.6396875 0.2165625 1.6396875 0.2165625 3.3125 0.4375 C8.529258 1.09310693 13.76234747 1.54748223 19 2 C18.01 2.33 17.02 2.66 16 3 C14.84164327 5.97503122 14.84164327 5.97503122 14 9 C13 10 13 10 10 10.1875 C5.50361763 10.14076006 1.35279177 9.07145643 -3 8 C-2.01 5.36 -1.02 2.72 0 0 Z " fill="#5D2506" transform="translate(213,316)"/>
<path d="M0 0 C2 2 2 2 2.0625 4.375 C0.75460924 7.60625952 -1.01766164 8.77074465 -4.078125 10.3515625 C-6.93722511 11.31621823 -9.15725492 10.83202295 -12 10 C-11.78002243 6.1503925 -11.00932799 5.00953999 -8.25 2.1875 C-4.99669334 -0.00222563 -3.78834361 -0.73662237 0 0 Z " fill="#0F0B09" transform="translate(285,231)"/>
<path d="M0 0 C3.60180339 0.65487334 5.07640776 2.26639162 7.61328125 4.796875 C8.75 6.5 8.75 6.5 8.75 10.5 C5.82406105 11.35637238 3.66825712 11.88673104 0.79296875 10.67578125 C-0.92511732 9.67852152 -2.59201387 8.59427085 -4.25 7.5 C-4.375 5.125 -4.375 5.125 -4.25 2.5 C-2.25 0.5 -2.25 0.5 0 0 Z " fill="#090605" transform="translate(252.25,230.5)"/>
<path d="M0 0 C1.1446875 0.3403125 1.1446875 0.3403125 2.3125 0.6875 C2.5 3.5625 2.5 3.5625 2.3125 6.6875 C-0.6875 8.6875 -0.6875 8.6875 -2.875 8.3125 C-3.473125 8.10625 -4.07125 7.9 -4.6875 7.6875 C-5.375 5.375 -5.375 5.375 -5.6875 2.6875 C-4.0011022 -0.12316299 -3.27764429 -0.38112143 0 0 Z " fill="#FCF5F5" transform="translate(255.6875,285.3125)"/>
<path d="M0 0 C2.5 0.125 2.5 0.125 3.5 1.125 C3.6875 3.5625 3.6875 3.5625 3.5 6.125 C2.84 6.785 2.18 7.445 1.5 8.125 C-1.43453261 7.75818342 -2.36437246 7.26062754 -4.5 5.125 C-3.7519084 0.18759542 -3.7519084 0.18759542 0 0 Z " fill="#EAEAEA" transform="translate(231.5,197.875)"/>
<path d="M0 0 C2.5 0.125 2.5 0.125 3.5 1.125 C3.625 3.625 3.625 3.625 3.5 6.125 C2.5 7.125 2.5 7.125 0 7.25 C-2.5 7.125 -2.5 7.125 -3.5 6.125 C-3.625 3.625 -3.625 3.625 -3.5 1.125 C-2.5 0.125 -2.5 0.125 0 0 Z " fill="#F8F8F8" transform="translate(317.5,197.875)"/>
<path d="M0 0 C3.26008643 3.16952847 6.22237877 6.39937989 9 10 C5.2404812 9.47784461 2.63228537 8.82726947 0 6 C-0.25 2.8125 -0.25 2.8125 0 0 Z " fill="#522005" transform="translate(182,290)"/>
<path d="M0 0 C0.66 0.33 1.32 0.66 2 1 C1.71682074 2.60568666 1.42312209 4.20952047 1.125 5.8125 C0.96257812 6.70582031 0.80015625 7.59914062 0.6328125 8.51953125 C0 11 0 11 -2 14 C-2.21192221 8.80790596 -1.5912689 4.873261 0 0 Z " fill="#B29281" transform="translate(155,170)"/>
<path d="M0 0 C0.99 0.99 1.98 1.98 3 3 C2.8125 5.625 2.8125 5.625 2 8 C1.01 8.495 1.01 8.495 0 9 C0 6.03 0 3.06 0 0 Z " fill="#7E3107" transform="translate(182,258)"/>
</svg>
